<?xml version="1.0" encoding="UTF-8" standalone="no"?>
<svg xmlns="http://www.w3.org/2000/svg">

        <path
                d="M 200.71741,175.60586 A 70.710678,69.700523 0 0 1 111.228,193.10049 70.710678,69.700523 0 0 1 78.726847,109.07144 70.710678,69.700523 0 0 1 157.31765,63.399389 70.710678,69.700523 0 0 1 216.17264,132.11324 l -70.71068,0 z"
                id="path6943"
                style="fill:#ff0000;fill-rule:evenodd;stroke:#000000;stroke-width:1px;stroke-linecap:butt;stroke-linejoin:miter;stroke-opacity:1" />
        <path
                d="m 262.48032,416.58378 a 79.296974,76.266518 0 0 1 -100.35598,19.14267 79.296974,76.266518 0 0 1 -36.44773,-91.94483 79.296974,76.266518 0 0 1 88.13398,-49.97449 79.296974,76.266518 0 0 1 66.00166,75.18689 l -79.29698,0 z"
                id="path6945"
                style="fill:#ff0000;fill-rule:evenodd;stroke:#000000;stroke-width:1px;stroke-linecap:butt;stroke-linejoin:miter;stroke-opacity:1" />
        <!--path
                d="m 412.69507,226.95001 a 89.90358,54.043159 0 0 1 -113.77939,13.56467 89.90358,54.043159 0 0 1 -41.3229,-65.15295 89.90358,54.043159 0 0 1 99.9226,-35.41239 89.90358,54.043159 0 0 1 74.82991,53.27812 l -89.90358,0 z"
                id="path6947"
                style="fill:#ff0000;fill-rule:evenodd;stroke:#000000;stroke-width:1px;stroke-linecap:butt;stroke-linejoin:miter;stroke-opacity:1" /-->

</svg>
